<svg version="1.0" xmlns="http://www.w3.org/2000/svg" width="800.000000" height="800.000000" viewBox="0 0 800.000000 800.000000" preserveAspectRatio="xMidYMid meet">
  <metadata>
    <rdf:RDF xmlns:rdf="http://www.w3.org/1999/02/22-rdf-syntax-ns#" xmlns:rdfs="http://www.w3.org/2000/01/rdf-schema#" xmlns:dc="http://purl.org/dc/elements/1.1/">
      <rdf:Description dc:format="image/svg+xml" dc:Label="1" dc:ContentProducer="001191330110MACRLGPT8B00000" dc:ProduceID="306320192" dc:ReservedCode1="3Sb4/WDECRdLKH95FyW4rr2SafHczzjR3mp2/2U6nvc=" dc:ContentPropagator="001191330110MACRLGPT8B00000" dc:PropagateID="306320192" dc:ReservedCode2="3Sb4/WDECRdLKH95FyW4rr2SafHczzjR3mp2/2U6nvc="/>
    </rdf:RDF>
  </metadata>
  <g transform="translate(0.000000,800.000000) scale(0.100000,-0.100000)" fill="#000000" stroke="none">
    <path d="M3097 5703 c-4 -3 -7 -53 -7 -109 l0 -103 -448 -3 -449 -3 -36 -28 c-69 -52 -77 -83 -77 -279 0 -146 3 -179 19 -213 22 -50 69 -91 119 -105 49 -13 776 -13 862 1 76 12 139 40 188 83 37 32 92 103 92 118 0 4 -241 8 -535 8 l-535 0 0 105 0 105 535 0 c294 0 535 3 535 6 0 12 -46 112 -71 156 -15 26 -23 48 -18 50 5 2 54 0 107 -3 115 -8 179 -31 270 -96 191 -136 278 -384 243 -693 -47 -406 -204 -708 -470 -903 -101 -75 -150 -126 -188 -199 -25 -48 -28 -63 -28 -153 0 -116 20 -171 88 -236 163 -159 414 -120 676 105 79 68 144 143 263 307 136 185 228 269 373 344 129 65 243 89 398 82 141 -6 223 -27 328 -84 175 -94 298 -249 351 -442 20 -69 22 -109 26 -438 l4 -363 -161 0 -161 0 0 298 c0 163 -5 324 -10 357 -22 133 -113 256 -235 316 -55 27 -79 33 -159 37 -217 11 -335 -62 -498 -308 -114 -171 -176 -247 -293 -358 -418 -400 -1022 -478 -1326 -171 -148 149 -197 372 -128 579 63 190 182 340 425 534 83 67 173 146 199 176 79 93 143 241 160 370 3 30 9 63 11 73 5 16 -34 17 -725 17 l-731 0 0 -105 0 -105 595 0 c403 0 595 -3 595 -10 0 -35 -86 -136 -165 -193 -329 -238 -514 -479 -585 -762 -20 -78 -22 -107 -17 -220 4 -93 11 -148 26 -194 76 -231 232 -397 465 -494 49 -20 95 -38 104 -39 10 -1 -104 -4 -253 -7 -266 -6 -271 -6 -325 -32 -64 -31 -120 -84 -145 -135 -14 -30 -15 -38 -4 -45 8 -5 233 -9 502 -9 l487 0 0 100 0 100 54 0 c182 0 467 90 661 210 219 135 441 364 605 625 86 138 168 195 279 195 82 -1 174 -62 201 -135 8 -20 11 -133 10 -347 l-1 -318 96 0 96 0 97 -78 c54 -43 115 -90 136 -104 l38 -26 -293 -4 c-281 -3 -296 -4 -343 -26 -74 -34 -113 -67 -146 -125 -16 -29 -30 -55 -30 -59 0 -4 248 -8 551 -8 l550 0 -4 602 c-3 580 -4 606 -25 680 -64 233 -193 410 -396 544 l-59 39 110 5 c98 5 117 9 176 38 73 36 132 95 168 170 19 38 23 64 23 137 0 108 -19 159 -88 233 -168 179 -513 152 -642 -50 -13 -21 -24 -40 -24 -43 0 -3 100 -5 223 -5 196 0 226 -2 256 -18 104 -56 85 -210 -28 -242 -20 -5 -127 -10 -238 -10 -112 0 -203 -3 -203 -7 0 -18 54 -94 82 -116 l31 -25 -94 20 c-140 31 -332 29 -460 -5 -52 -14 -128 -39 -169 -56 -177 -76 -362 -236 -498 -433 -173 -251 -310 -369 -477 -413 -113 -29 -186 23 -172 124 7 57 31 86 133 162 318 238 514 617 556 1076 9 100 9 160 1 245 -6 62 -10 114 -8 116 2 2 36 8 76 13 39 5 96 20 125 33 58 27 139 97 167 145 l18 31 -233 0 -233 0 -26 48 c-15 26 -47 73 -73 104 -25 31 -46 58 -46 60 0 2 51 2 114 0 148 -5 266 11 336 45 57 28 131 96 156 144 l15 29 -694 0 c-382 0 -697 -3 -700 -7z"/>
  </g>
</svg>

